#!OML:ASF F:\VICON\USERDATA\INSTALL\rory3\rory3.ASF
:FULLY-SPECIFIED
:DEGREES
133
root 0.5705555294981016 17.68871615585627 42.697101640384396 2.0072878676238064 1.332863847444469 0.2974574746073644
lfemur -21.12956827173898 1.556183864705904 -19.6049595735612
ltibia 62.88966218431362
lfoot 3.5893744631704187 -10.223192025533516
ltoes -8.877094199114662
rfemur -17.876066109431342 4.013963381301882 28.87734989822052
rtibia 51.89940091295517
rfoot -4.486456085953646 -5.444573360046122
rtoes -4.355759641294182
lowerback 13.896881836844901 0.5307075666509782 2.1321110615602654
upperback -0.360672876356507 1.7850972451286633 1.974548406717608
thorax -8.29989436890042 1.094084627838866 0.47277515559457295
lowerneck -18.758121224703004 -4.189992215483977 -2.1712072390341954
upperneck 13.852910851772016 -5.457482891252992 2.887112747588923
head 7.432303202136293 -2.3182252345950425 0.7120046690430893
lclavicle 3.0724827264545893e-16 -4.3067221206564905e-16
lhumerus -48.93196349765946 -14.09292479046041 98.45277996191106
lradius 109.7171447461686
lwrist 32.248653961562795
lhand -25.79188765205256 3.2995377236470347
lfingers 7.125020000000001
lthumb 0.5130821163373815 32.723573452067775
rclavicle 3.0728743657241976e-16 -4.3064985682852227e-16
rhumerus -46.49431684807218 6.680072734653393 -95.33449815172379
rradius 103.92510691624787
rwrist -19.37144035841601
rhand -18.46906563339256 37.488900436553294
rfingers 7.125020000000001
rthumb 7.922236748190562 7.600225821125065
134
root 0.5588158667387351 17.67365148347458 40.88292837114232 1.984183401117238 1.0184099776062885 0.020082421227954672
lfemur -22.789469739772343 1.239963848493351 -20.07529043498089
ltibia 61.331523643204015
lfoot 3.4456829922905783 -10.513293489042944
ltoes -8.430645708302958
rfemur -15.287257140043268 4.356808185601812 29.589001300316657
rtibia 51.661466071325655
rfoot -4.511925876794532 -5.437484745930538
rtoes -4.440445716401892
lowerback 13.835658906488883 0.5732895214581801 2.205507703459687
upperback -0.34587279890200173 2.004852861170475 1.980151597555858
thorax -8.33191115275238 1.0642398200189027 0.10184596037951173
lowerneck -18.70046473129319 -4.288749554978298 -2.2167479169650077
upperneck 13.887081644946496 -5.425211789786376 2.9569894480668837
head 7.405697182718484 -2.3463324271065167 0.7035368829922438
lclavicle 3.0724827264545893e-16 -4.3067221206564905e-16
lhumerus -49.14923832043557 -13.920068575274158 98.41550290570997
lradius 109.296491174724
lwrist 32.19549809138568
lhand -25.799585721381387 3.3124376591088436
lfingers 7.125020000000001
lthumb 0.5681242229822645 32.79934771147873
rclavicle 3.0728743657241976e-16 -4.3064985682852227e-16
rhumerus -45.40734864917312 6.886236746229176 -95.25305476392475
rradius 103.87688628734517
rwrist -19.386440843015155
rhand -18.50037124197961 37.47142413376105
rfingers 7.125020000000001
rthumb 7.844259763402561 7.530137662795649
135
root 0.5667703989846089 17.706530413878806 41.553806782924205 2.1003092964140686 1.1661080065281766 -0.03505819294969914
lfemur -22.784356683207378 0.9895805911950272 -20.205839589791186
ltibia 59.38601101113248
lfoot 2.7713036885593696 -10.4497346381943
ltoes -8.247680727801262
rfemur -14.473032277254504 4.298369354254358 29.965717851508465
rtibia 51.16000805292138
rfoot -4.076489874143153 -5.75472930160101
rtoes -5.085672622881885
lowerback 13.773114390212964 0.6445814528498124 2.3599289997099655
upperback -0.3313399354308972 2.2355078186513753 2.0021403108584073
thorax -8.263632187832414 1.177312703862226 0.0663946004129721
lowerneck -18.606357887459723 -4.339485106851855 -2.237040204197028
upperneck 13.878120797549881 -5.364990568304563 3.0275558586059286
head 7.385705308450887 -2.3910534674823367 0.6941840941392585
lclavicle 3.0724827264545893e-16 -4.3067221206564905e-16
lhumerus -48.80903047447869 -13.62639867363708 98.55915757786335
lradius 109.64922663508098
lwrist 32.26456178136927
lhand -25.878292915303206 3.284366507377591
lfingers 7.125020000000001
lthumb 0.6037304783945696 32.879493098682715
rclavicle 3.0728743657241976e-16 -4.3064985682852227e-16
rhumerus -44.4957824157657 7.0769889514725035 -95.2084122613724
rradius 103.83927848764887
rwrist -19.35573337263407
rhand -18.441417818610166 37.49819556530446
rfingers 7.125020000000001
rthumb 7.837575877060539 7.518013326960414
136
root 0.5580615833974878 17.69502535615985 39.725802666455415 2.034703847897555 0.8878607729601369 -0.33393306187354566
lfemur -23.31633851852584 0.8197207334801279 -20.231667724761795
ltibia 57.43239534308068
lfoot 1.3913972388762366 -10.611836874822078
ltoes -8.249290076401152
rfemur -15.114615156710101 4.195765492552776 29.721901178212832
rtibia 50.842696936527375
rfoot -3.9281159564877757 -6.476413180064732
rtoes -5.25643673933493
lowerback 13.666612143859513 0.7077666952472845 2.5400065576766746
upperback -0.37546188544753734 2.2679928247121777 1.919893074853015
thorax -8.270628942329171 1.2562183738890982 -0.001705669737355725
lowerneck -18.402129469233486 -4.286958213030148 -2.227320886071185
upperneck 13.818013242240527 -5.363133708688686 3.0601995668931603
head 7.376717593442346 -2.450730007993899 0.6802585074217773
lclavicle 3.0724827264545893e-16 -4.3067221206564905e-16
lhumerus -48.35469363356139 -13.630814697902768 98.66904253996083
lradius 109.81278331302666
lwrist 32.25498473997914
lhand -25.877387566278127 3.331273999156238
lfingers 7.125020000000001
lthumb 0.5993645404889463 32.89424299491182
rclavicle 3.0728743657241976e-16 -4.3064985682852227e-16
rhumerus -43.671840218496754 7.302009417864237 -95.15767304062075
rradius 103.90278317911755
rwrist -19.327694221541982
rhand -18.48514882878517 37.44097637395309
rfingers 7.125020000000001
rthumb 7.820933306555787 7.480486839836309
137
root 0.5808394260839103 17.76389504134714 41.9444271599583 2.2125094582833587 1.2338532279596137 -0.11067305014307416
lfemur -23.236561696947522 0.7451796791377155 -20.45032982428182
ltibia 55.80066325714362
lfoot 0.45017642979035166 -10.338835898202733
ltoes -8.416298994643276
rfemur -11.940924638192513 4.50742059645288 30.130021527069196
rtibia 51.396509580389086
rfoot -3.8339844382998876 -7.225262350961516
rtoes -5.382595643596401
lowerback 13.620918529938104 0.8399986132924037 2.844456820542016
upperback -0.4358105351029376 2.2185937028140743 1.8176887912522046
thorax -8.222773465900802 1.3259854308740353 0.014460636074457522
lowerneck -18.38162957223975 -4.321958035885642 -2.2609783369970335
upperneck 13.727521403117123 -5.4576525406089385 3.0493564908284068
head 7.376760438428439 -2.499009361159142 0.6696434002639918
lclavicle 3.0724827264545893e-16 -4.3067221206564905e-16
lhumerus -48.410398216283696 -13.865246175346778 98.5163982192635
lradius 109.87316662982907
lwrist 32.340845585846544
lhand -25.837903410739106 3.3926882243347873
lfingers 7.125020000000001
lthumb 0.6151910156904157 32.98229132969074
rclavicle 3.0728743657241976e-16 -4.3064985682852227e-16
rhumerus -43.19757978270668 7.464898709259993 -95.17224288542147
rradius 103.9215759070827
rwrist -19.391713176408185
rhand -18.430100044493265 37.48855415521791
rfingers 7.125020000000001
rthumb 7.886587149475503 7.535122021385804
138
root 0.5691885709340447 17.744450311842563 40.05611283982005 2.1082842276770193 1.0065055548298383 -0.35288302507187286
lfemur -21.327215852389813 0.9251525364432921 -20.039914432227253
ltibia 54.049428511633884
lfoot -0.2261036944736734 -9.725422596273047
ltoes -8.614662610293555
rfemur -13.979611850453223 4.169915636299844 29.392690283243063
rtibia 52.5867674500002
rfoot -3.5785005155732157 -7.386001613268883
rtoes -5.224312785973954
lowerback 13.454174753455506 0.8719560771177441 2.885782778696911
upperback -0.4984476949827751 2.207363053345007 1.7446808161327123
thorax -8.239548042776809 1.3802194773098246 0.06026446450135664
lowerneck -18.32164104904096 -4.3142541680070385 -2.268007583986348
upperneck 13.676037097924953 -5.574969766163141 3.0535861932457404
head 7.378084755026724 -2.534134097792286 0.6619596234996104
lclavicle 3.0724827264545893e-16 -4.3067221206564905e-16
lhumerus -49.171654794961356 -14.006431174062287 98.30221685842434
lradius 109.88361183102084
lwrist 32.33898998223973
lhand -25.83236108671115 3.3582370835270265
lfingers 7.125020000000001
lthumb 0.6373477723311628 33.04350626726653
rclavicle 3.0728743657241976e-16 -4.3064985682852227e-16
rhumerus -42.533712031508365 7.7172366829581955 -95.14470634062722
rradius 103.85588184216601
rwrist -19.43568235905639
rhand -18.47029341827764 37.461708805031606
rfingers 7.125020000000001
rthumb 7.8384121900389445 7.453485963122782
